{"title":"[18Yoga] Bella Baby (Seduced by My Best Friend) 480p","uid":12239666,"size":258201636,"categoryP":"porn","categoryS":"movie_clips","magnet":"?xt=urn:btih:98544d3cf1f8f152963cbb5fead4dafb30395a7d&amp;dn=%5B18Yoga%5D+Bella+Baby+%28Seduced+by+My+Best+Friend%29+480p&amp;tr=udp%3A%2F%2Ftracker.openbittorrent.com%3A80&amp;tr=udp%3A%2F%2Fopen.demonii.com%3A1337&amp;tr=udp%3A%2F%2Ftracker.coppersurfer.tk%3A6969&amp;tr=udp%3A%2F%2Fexodus.desync.com%3A6969","seeders":0,"leechers":0,"uploader":"JBilbo","files":3,"time":1439742257,"description":"[18Yoga]\n\nBella Baby (Seduced by My Best Friend)\n\n\nGeneral\nComplete name                            : [18Yoga] Bella Baby (Seduced by My Best Friend)[18Yoga] Bella Baby (Seduced by My Best Friend).mp4\nFormat                                   : MPEG-4\nFormat profile                           : Base Media / Version 2\nCodec ID                                 : mp42\nFile size                                : 246 MiB\nDuration                                 : 21mn 7s\nOverall bit rate mode                    : Variable\nOverall bit rate                         : 1 627 Kbps\nEncoded date                             : UTC 2015-04-24 11:45:49\nTagged date                              : UTC 2015-04-24 11:46:22\nÂ©TIM                                     : 00:00:00:00\nÂ©TSC                                     : 25\nÂ©TSZ                                     : 1\n\nVideo\nID                                       : 1\nFormat                                   : AVC\nFormat/Info                              : Advanced Video Codec\nFormat profile                           : &lt;a class=&quot;__cf_email__&quot; href=&quot;/cdn-cgi/l/email-protection&quot; data-cfemail=&quot;6921000e0129255a4758&quot;&gt;[email&amp;#160;protected]&lt;/a&gt;&lt;script data-cfhash='f9e31' type=&quot;text/javascript&quot;&gt;\n/* &lt;![CDATA[ */!function(){try{var t=&quot;currentScript&quot;in document?document.currentScript:function(){for(var t=document.getElementsByTagName(&quot;script&quot;),e=t.length;e--;)if(t[e].getAttribute(&quot;data-cfhash&quot;))return t[e]}();if(t&amp;&amp;t.previousSibling){var e,r,n,i,c=t.previousSibling,a=c.getAttribute(&quot;data-cfemail&quot;);if(a){for(e=&quot;&quot;,r=parseInt(a.substr(0,2),16),n=2;a.length-n;n+=2)i=parseInt(a.substr(n,2),16)^r,e+=String.fromCharCode(i);e=document.createTextNode(e),c.parentNode.replaceChild(e,c)}t.parentNode.removeChild(t);}}catch(u){}}()/* ]]&gt; */&lt;/script&gt;\nFormat settings, CABAC                   : Yes\nFormat settings, ReFrames                : 3 frames\nCodec ID                                 : avc1\nCodec ID/Info                            : Advanced Video Coding\nDuration                                 : 21mn 7s\nBit rate mode                            : Variable\nBit rate                                 : 1 497 Kbps\nMaximum bit rate                         : 2 000 Kbps\nWidth                                    : 854 pixels\nHeight                                   : 480 pixels\nDisplay aspect ratio                     : 16:9\nFrame rate mode                          : Constant\nFrame rate                               : 25.000 fps\nStandard                                 : PAL\nColor space                              : YUV\nChroma subsampling                       : 4:2:0\nBit depth                                : 8 bits\nScan type                                : Progressive\nBits/(Pixel*Frame)                       : 0.146\nStream size                              : 226 MiB (92%)\nLanguage                                 : English\nEncoded date                             : UTC 2015-04-24 11:45:49\nTagged date                              : UTC 2015-04-24 11:45:49\nColor primaries                          : BT.601 NTSC\nTransfer characteristics                 : BT.601\nMatrix coefficients                      : BT.601\n\nAudio\nID                                       : 2\nFormat                                   : AAC\nFormat/Info                              : Advanced Audio Codec\nFormat profile                           : LC\nCodec ID                                 : 40\nDuration                                 : 21mn 7s\nSource duration                          : 21mn 7s\nBit rate mode                            : Variable\nBit rate                                 : 125 Kbps\nMaximum bit rate                         : 195 Kbps\nChannel count                            : 2 channels\nChannel positions                        : Front: L R\nSampling rate                            : 48.0 KHz\nCompression mode                         : Lossy\nStream size                              : 18.9 MiB (8%)\nSource stream size                       : 18.9 MiB (8%)\nLanguage                                 : English\nEncoded date                             : UTC 2015-04-24 11:45:49\nTagged date                              : UTC 2015-04-24 11:45:49\n\n &lt;a href=&quot;\nhttp://s13.postimg.org/ewtr59wk7/18_Yoga_Bella_Baby_Seduced_by_My_Best_Friend.jpg&quot; rel=&quot;nofollow&quot; target=&quot;_NEW&quot;&gt;\nhttp://s13.postimg.org/ewtr59wk7/18_Yoga_Bella_Baby_Seduced_by_My_Best_Friend.jpg&lt;/a&gt;\n\n &lt;a href=&quot;\nhttp://s13.postimg.org/j78f0v1nb/18_Yoga_Bella_Baby_Seduced_by_My_Best_Friend.jpg&quot; rel=&quot;nofollow&quot; target=&quot;_NEW&quot;&gt;\nhttp://s13.postimg.org/j78f0v1nb/18_Yoga_Bella_Baby_Seduced_by_My_Best_Friend.jpg&lt;/a&gt;","torrent":{"xt":"urn:btih:98544d3cf1f8f152963cbb5fead4dafb30395a7d","amp;dn":"%5B18Yoga%5D+Bella+Baby+%28Seduced+by+My+Best+Friend%29+480p","amp;tr":["udp%3A%2F%2Ftracker.openbittorrent.com%3A80","udp%3A%2F%2Fopen.demonii.com%3A1337","udp%3A%2F%2Ftracker.coppersurfer.tk%3A6969","udp%3A%2F%2Fexodus.desync.com%3A6969"],"infoHash":"98544d3cf1f8f152963cbb5fead4dafb30395a7d","infoHashBuffer":{"type":"Buffer","data":[152,84,77,60,241,248,241,82,150,60,187,95,234,212,218,251,48,57,90,125]},"announce":[],"urlList":[]}}